<svg width="39" height="52" viewBox="0 0 39 52" fill="none" xmlns="http://www.w3.org/2000/svg">
<path fill-rule="evenodd" clip-rule="evenodd" d="M18.6941 45.6124C12.1085 38.0809 1.35438 27.1251 1.35438 17.8807C1.35438 8.00548 9.47851 0 19.5001 0C29.5216 0 37.6457 8.00548 37.6457 17.8807C37.6457 27.1251 26.8916 38.0809 20.306 45.6124C20.0967 45.8517 19.8207 45.9764 19.5001 45.9764C19.1794 45.9763 18.9035 45.8517 18.6941 45.6124ZM17.9842 19.3744C17.2283 18.6309 16.5583 17.8079 15.9888 16.9205C15.7809 16.5965 15.783 16.2071 15.9945 15.8854L16.8073 14.6489C16.9807 14.385 17.0138 14.0839 16.9016 13.7895L15.5037 10.1182C15.2848 9.54326 14.592 9.31576 14.0668 9.64642C13.4167 10.0557 12.7666 10.465 12.1165 10.8743C11.2264 11.4347 10.8133 12.442 11.0584 13.4544C11.813 16.5703 13.4589 19.3744 15.7337 21.5921C17.9842 23.8336 20.8299 25.4555 23.9919 26.199C25.0194 26.4405 26.0416 26.0334 26.6103 25.1564C27.0256 24.5158 27.441 23.8751 27.8563 23.2346C28.1919 22.7171 27.961 22.0343 27.3776 21.8186L23.6518 20.4411C23.3532 20.3306 23.0476 20.3633 22.7797 20.5341L21.5249 21.335C21.1984 21.5433 20.8033 21.5455 20.4744 21.3407C19.5739 20.7795 18.7387 20.1193 17.9842 19.3744ZM19.5001 3.46534C11.4207 3.46534 4.87108 9.91931 4.87108 17.8807C4.87108 25.842 11.4207 32.296 19.5001 32.296C27.5794 32.296 34.129 25.842 34.129 17.8807C34.129 9.91931 27.5794 3.46534 19.5001 3.46534ZM19.5001 5.14276C12.3604 5.14276 6.57336 10.8452 6.57336 17.8807C6.57336 24.9161 12.3604 30.6186 19.5001 30.6186C26.6397 30.6186 32.4268 24.9161 32.4268 17.8807C32.4268 10.8452 26.6397 5.14276 19.5001 5.14276ZM26.2781 41.4345C25.546 42.2673 24.8272 43.0733 24.1352 43.8481C27.7685 44.3287 30.2793 45.357 30.2793 46.548C30.2793 48.1992 25.4533 49.5378 19.5001 49.5378C13.5469 49.5378 8.72079 48.1992 8.72079 46.548C8.72079 45.357 11.2317 44.3287 14.865 43.8481C14.1729 43.0733 13.4541 42.2674 12.722 41.4345C5.29399 42.2044 0 44.2032 0 46.548C0.000106393 49.559 8.73047 52 19.5001 52C30.2696 52 39 49.559 39 46.548C39 44.2032 33.7061 42.2044 26.2781 41.4345Z" fill="url(#paint0_linear_308_3634)"/>
<defs>
<linearGradient id="paint0_linear_308_3634" x1="19.5" y1="0" x2="19.5" y2="52" gradientUnits="userSpaceOnUse">
<stop stop-color="#6CCAFF"/>
<stop offset="1" stop-color="#467DE2"/>
</linearGradient>
</defs>
</svg>
