<svg viewBox="0 0 19 19"  xmlns="http://www.w3.org/2000/svg" style="display:none">

	<symbol viewBox="0 0 19 15" id="twitter">
		<path d="M19 1.77577C18.2934 2.07692 17.5406 2.27654 16.7556 2.37346C17.5631 1.905 18.1794 1.16885 18.4692 0.281538C17.7163 0.717692 16.8851 1.02577 15.9992 1.19769C15.2843 0.458077 14.2654 0 13.1539 0C10.9974 0 9.26131 1.70077 9.26131 3.78577C9.26131 4.08577 9.28744 4.37423 9.35156 4.64885C6.11325 4.49538 3.24781 2.98731 1.32287 0.69C0.986812 1.25654 0.789688 1.905 0.789688 2.60308C0.789688 3.91385 1.48438 5.07577 2.51987 5.74846C1.89406 5.73692 1.28012 5.56038 0.76 5.28231C0.76 5.29385 0.76 5.30885 0.76 5.32385C0.76 7.16308 2.11019 8.69077 3.88075 9.04269C3.56369 9.12692 3.21812 9.16731 2.8595 9.16731C2.61012 9.16731 2.35837 9.15346 2.12206 9.10269C2.62675 10.6015 4.05888 11.7035 5.76175 11.7392C4.4365 12.7465 2.75381 13.3535 0.932188 13.3535C0.61275 13.3535 0.306375 13.3396 0 13.3015C1.72544 14.3827 3.77031 15 5.9755 15C13.1432 15 17.062 9.23077 17.062 4.23C17.062 4.06269 17.0561 3.90115 17.0477 3.74077C17.8208 3.20769 18.4704 2.54192 19 1.77577Z"/>
	</symbol>

	<symbol viewBox="0 0 19 19" id="instagram">
		<path fill-rule="evenodd" clip-rule="evenodd" d="M9.5 0C14.7469 0 19 4.25311 19 9.5C19 14.7469 14.7469 19 9.5 19C4.25311 19 0 14.7469 0 9.5C0 4.25311 4.25311 0 9.5 0ZM7.51242 4.70807C5.72523 4.78971 4.78637 5.79537 4.70844 7.51242C4.64906 8.81236 4.64906 10.1876 4.70844 11.4876C4.78637 13.2046 5.72523 14.2103 7.51242 14.2919C8.81273 14.3509 10.1876 14.3509 11.4879 14.2919C13.205 14.2133 14.2103 13.2759 14.2919 11.4876C14.3509 10.1873 14.3509 8.81311 14.2919 7.51242C14.2118 5.76234 13.238 4.78822 11.4879 4.70807C10.1876 4.64906 8.81273 4.64906 7.51242 4.70807ZM11.4482 5.57605C12.7467 5.63506 13.3653 6.2533 13.4239 7.55213C13.4826 8.82498 13.4826 10.175 13.4239 11.4479C13.3635 12.7842 12.7129 13.3664 11.4482 13.4239C10.1746 13.4822 8.82572 13.4822 7.55213 13.4239C6.28707 13.3664 5.63691 12.7842 5.57605 11.4479C5.51779 10.175 5.51779 8.82498 5.57605 7.55213C5.63357 6.2867 6.21619 5.63691 7.55213 5.57605C8.82572 5.51779 10.1746 5.51779 11.4482 5.57605ZM9.5 11.1068C8.61271 11.1068 7.89316 10.3877 7.89316 9.5C7.89354 8.61234 8.61271 7.89316 9.5 7.89316C10.3877 7.89316 11.1072 8.61234 11.1072 9.5C11.1072 10.3873 10.3877 11.1068 9.5 11.1068ZM9.5 7.02443C8.13326 7.02443 7.02443 8.13289 7.02443 9.5C7.02443 10.8671 8.13289 11.9756 9.5 11.9756C10.8675 11.9756 11.9756 10.8671 11.9756 9.5C11.9756 8.13289 10.8675 7.02443 9.5 7.02443ZM12.6521 6.92646C12.6521 7.24598 12.393 7.50537 12.0735 7.50537C11.7537 7.50537 11.495 7.24635 11.495 6.92684C11.495 6.60732 11.7537 6.3483 12.0735 6.3483C12.393 6.3483 12.6521 6.60732 12.6521 6.92646Z"/>
	</symbol>

	<symbol viewBox="0 0 8 16" id="facebook">
		<path d="M5.19311 16V8.70218H7.55084L7.90457 5.85725H5.19311V4.04118C5.19311 3.21776 5.41238 2.65661 6.55063 2.65661L8 2.65599V0.111384C7.74935 0.0775563 6.88896 0 5.88756 0C3.79647 0 2.36488 1.32557 2.36488 3.75942V5.85725H0V8.70218H2.36488V16H5.19311Z"/>
	</symbol>

</svg>