<svg width="225" height="225" viewBox="0 0 225 225" fill="none" xmlns="http://www.w3.org/2000/svg">
<path d="M201.476 174.374L199.701 173.12L200.213 172.394L202.003 173.658L206.788 173.982L206.234 174.767L202.367 174.498L203.907 178.059L203.395 178.785L201.476 174.374Z" fill="#62657B"/>
<path d="M208.585 169.475L209.699 167.63L210.367 168.034L207.681 172.485L207.012 172.081L208.125 170.236L203.413 167.391L203.872 166.63L208.585 169.475Z" fill="#62657B"/>
<path d="M212.18 164.635L211.756 165.427L206.215 162.458L206.639 161.667L212.18 164.635Z" fill="#62657B"/>
<path d="M214.243 160.485L213.852 161.293L208.897 158.895L207.414 161.958L206.711 161.618L208.585 157.746L214.243 160.485Z" fill="#62657B"/>
<path d="M212.15 153.543L213.407 150.449L212.212 149.217L212.56 148.36L217.312 153.363L216.978 154.186L210.079 154.466L210.434 153.592L212.15 153.543ZM212.934 153.522L216.298 153.426L213.955 151.01L212.934 153.522Z" fill="#62657B"/>
<path d="M214.528 144.686L213.781 144.458L215.113 140.096L221.125 141.932L219.829 146.174L219.082 145.946L220.116 142.563L218.269 141.999L217.348 145.013L216.618 144.79L217.539 141.776L215.598 141.183L214.528 144.686Z" fill="#62657B"/>
<path d="M215.653 137.839L217.834 136.939C217.859 136.773 217.882 136.643 217.903 136.55L218.244 135.034L216.377 134.615L216.574 133.739L222.708 135.117L222.17 137.508C221.992 138.302 221.662 138.885 221.18 139.255C220.697 139.625 220.124 139.736 219.458 139.586C218.984 139.48 218.608 139.272 218.327 138.964C218.047 138.656 217.879 138.268 217.824 137.802L215.439 138.794L215.653 137.839ZM218.654 136.691C218.529 137.245 218.554 137.696 218.728 138.042C218.902 138.387 219.21 138.61 219.654 138.71C220.098 138.81 220.47 138.74 220.769 138.5C221.074 138.262 221.289 137.866 221.414 137.311L221.748 135.821L218.988 135.201L218.654 136.691Z" fill="#62657B"/>
<path d="M224.828 119.71L224.562 122.346C224.495 123.007 224.305 123.58 223.991 124.066C223.678 124.552 223.268 124.91 222.764 125.142C222.264 125.381 221.708 125.469 221.094 125.407C220.481 125.345 219.95 125.147 219.502 124.813C219.06 124.486 218.734 124.053 218.523 123.514C218.313 122.976 218.241 122.376 218.308 121.715L218.574 119.079L224.828 119.71ZM219.09 121.739C219.039 122.246 219.093 122.699 219.251 123.1C219.408 123.507 219.652 123.833 219.983 124.077C220.319 124.321 220.72 124.467 221.184 124.514C221.649 124.561 222.067 124.497 222.44 124.324C222.818 124.152 223.125 123.882 223.361 123.515C223.596 123.154 223.739 122.72 223.79 122.214L223.961 120.525L219.261 120.051L219.09 121.739Z" fill="#62657B"/>
<path d="M219.472 114.008L218.691 114.005L218.714 109.443L225 109.475L224.978 113.91L224.197 113.906L224.214 110.369L222.284 110.359L222.268 113.511L221.505 113.507L221.52 110.355L219.491 110.345L219.472 114.008Z" fill="#62657B"/>
<path d="M223.86 103.729L223.707 101.58L224.486 101.525L224.854 106.71L224.075 106.765L223.922 104.616L218.431 105.006L218.368 104.119L223.86 103.729Z" fill="#62657B"/>
<path d="M223.888 96.7954L217.674 97.7457L217.562 97.0179L221.626 92.5815L216.992 93.2901L216.856 92.4026L223.07 91.4523L223.182 92.1801L219.118 96.6165L223.752 95.9078L223.888 96.7954Z" fill="#62657B"/>
<path d="M216.462 87.2683L215.704 87.4595L214.588 83.0371L220.682 81.4983L221.768 85.7989L221.011 85.9902L220.145 82.5601L218.273 83.0328L219.044 86.0884L218.304 86.2753L217.533 83.2196L215.565 83.7164L216.462 87.2683Z" fill="#62657B"/>
<path d="M211.101 73.0589L215.366 71.3916L210.986 70.6567L210.836 70.2717L213.546 66.7816L209.302 68.4308L208.99 67.6274L214.849 65.3504L215.116 66.0366L211.947 70.0808L217.002 70.8907L217.269 71.577L211.413 73.8624L211.101 73.0589Z" fill="#62657B"/>
<path d="M208.587 60.2634L209 61.02L206.849 62.1949C206.474 62.045 206.127 61.8219 205.808 61.5253C205.489 61.2288 205.222 60.8836 205.007 60.4895C204.703 59.9326 204.55 59.3649 204.547 58.7864C204.55 58.2049 204.695 57.6693 204.98 57.1795C205.273 56.692 205.687 56.302 206.223 56.0093C206.759 55.7167 207.311 55.5788 207.88 55.5957C208.451 55.6179 208.98 55.7863 209.465 56.1009C209.954 56.4207 210.352 56.8617 210.659 57.4239C210.9 57.8652 211.044 58.3046 211.092 58.7422C211.148 59.1822 211.106 59.6043 210.965 60.0085L210.21 59.7868C210.394 59.1131 210.316 58.4636 209.974 57.8384C209.745 57.4181 209.446 57.09 209.079 56.8542C208.719 56.6208 208.325 56.4984 207.896 56.4872C207.472 56.4731 207.058 56.5765 206.654 56.7974C206.254 57.0155 205.943 57.308 205.721 57.675C205.504 58.0392 205.393 58.4369 205.39 58.8683C205.39 59.305 205.503 59.7308 205.73 60.1459C205.999 60.6397 206.353 61.006 206.79 61.2447L208.587 60.2634Z" fill="#62657B"/>
<path d="M199.212 51.3152C198.738 50.624 198.567 49.9504 198.698 49.2945C198.829 48.6386 199.265 48.0568 200.006 47.5492L202.954 45.5288L203.461 46.2694L200.543 48.2696C199.432 49.031 199.21 49.8981 199.876 50.8708C200.201 51.3449 200.586 51.6147 201.03 51.6804C201.479 51.7427 201.985 51.581 202.548 51.1952L205.466 49.1951L205.959 49.9135L203.011 51.9339C202.265 52.4449 201.563 52.6432 200.904 52.5288C200.25 52.4111 199.686 52.0065 199.212 51.3152Z" fill="#62657B"/>
<path d="M195.604 43.9048L193.465 41.3394L191.815 41.8147L191.223 41.1044L197.874 39.2651L198.443 39.9478L195.444 46.1663L194.84 45.4422L195.604 43.9048ZM195.955 43.2034L197.452 40.1896L194.218 41.1207L195.955 43.2034Z" fill="#62657B"/>
<path d="M175.828 24.5783L174.545 26.3324L173.828 25.8077L175.121 24.0391L175.522 19.2605L176.298 19.8275L175.966 23.6894L179.553 22.2071L180.27 22.7318L175.828 24.5783Z" fill="#62657B"/>
<path d="M171.045 17.3905L169.219 16.2468L169.633 15.5847L174.04 18.3439L173.625 19.006L171.799 17.8623L168.878 22.5274L168.124 22.0557L171.045 17.3905Z" fill="#62657B"/>
<path d="M166.265 13.7175L167.049 14.1545L163.991 19.6454L163.206 19.2085L166.265 13.7175Z" fill="#62657B"/>
<path d="M162.148 11.5868L162.95 11.9911L160.472 16.9059L163.511 18.4381L163.159 19.1356L159.318 17.1991L162.148 11.5868Z" fill="#62657B"/>
<path d="M155.174 13.5653L152.1 12.2576L150.849 13.4329L149.997 13.0708L155.077 8.40148L155.896 8.74949L156.063 15.651L155.195 15.2819L155.174 13.5653ZM155.166 12.7813L155.124 9.41649L152.67 11.7197L155.166 12.7813Z" fill="#62657B"/>
<path d="M146.357 11.0435L146.116 11.7868L141.776 10.383L143.71 4.40281L147.931 5.76793L147.691 6.51118L144.324 5.4224L143.73 7.25917L146.729 8.22912L146.494 8.95529L143.495 7.98534L142.871 9.91609L146.357 11.0435Z" fill="#62657B"/>
<path d="M139.528 9.80688L138.664 7.61178C138.498 7.58401 138.369 7.55887 138.276 7.53635L136.766 7.17115L136.316 9.03004L135.443 8.81894L136.921 2.70992L139.304 3.28622C140.095 3.47762 140.672 3.81729 141.034 4.30524C141.397 4.79319 141.498 5.36879 141.337 6.03206C141.223 6.50333 141.01 6.87663 140.697 7.15197C140.384 7.42731 139.994 7.58854 139.527 7.63567L140.48 10.037L139.528 9.80688ZM138.429 6.78821C138.982 6.9219 139.433 6.90466 139.781 6.73649C140.13 6.56831 140.358 6.26314 140.465 5.82096C140.572 5.37878 140.508 5.00615 140.273 4.70306C140.04 4.39415 139.647 4.17285 139.094 4.03915L137.61 3.68028L136.945 6.42934L138.429 6.78821Z" fill="#62657B"/>
<path d="M121.55 0.338569L124.181 0.647345C124.841 0.7248 125.411 0.924322 125.892 1.24591C126.373 1.5675 126.725 1.98249 126.948 2.49088C127.179 2.99403 127.258 3.55177 127.186 4.1641C127.114 4.77643 126.907 5.30364 126.566 5.74574C126.231 6.1826 125.793 6.50181 125.251 6.70337C124.709 6.90494 124.108 6.967 123.448 6.88954L120.817 6.58077L121.55 0.338569ZM123.485 6.10745C123.991 6.16676 124.445 6.12065 124.849 5.96913C125.259 5.8183 125.588 5.57972 125.837 5.2534C126.087 4.92112 126.24 4.52313 126.294 4.05943C126.348 3.59572 126.292 3.17628 126.125 2.8011C125.959 2.41998 125.694 2.10865 125.331 1.86711C124.973 1.62627 124.542 1.47619 124.036 1.41688L122.351 1.21906L121.8 5.90962L123.485 6.10745Z" fill="#62657B"/>
<path d="M115.762 5.59962L115.746 6.38059L111.185 6.28368L111.318 0L115.754 0.0942423L115.737 0.875213L112.199 0.800049L112.158 2.73003L115.31 2.797L115.294 3.56001L112.142 3.49305L112.099 5.52178L115.762 5.59962Z" fill="#62657B"/>
<path d="M105.555 1.04604L103.403 1.16357L103.36 0.383582L108.552 0.100049L108.594 0.880036L106.442 0.997563L106.742 6.49333L105.855 6.54181L105.555 1.04604Z" fill="#62657B"/>
<path d="M98.6225 0.905179L99.4713 7.13272L98.7417 7.23216L94.3715 3.09751L95.0045 7.74148L94.1147 7.86275L93.2659 1.6352L93.9955 1.53577L98.3657 5.67041L97.7327 1.02645L98.6225 0.905179Z" fill="#62657B"/>
<path d="M88.9748 8.17382L89.1536 8.93423L84.7128 9.97865L83.2737 3.86045L87.5922 2.84481L87.7711 3.60521L84.3268 4.41526L84.7688 6.29442L87.8371 5.57278L88.0119 6.31571L84.9435 7.03734L85.4081 9.01265L88.9748 8.17382Z" fill="#62657B"/>
<path d="M74.6793 13.302L73.0819 9.01038L72.2752 13.3776L71.8878 13.521L68.4421 10.7557L70.0218 15.0251L69.2133 15.3243L67.0322 9.42958L67.7228 9.17406L71.7151 12.4073L72.6078 7.36677L73.2984 7.11126L75.4879 13.0028L74.6793 13.302Z" fill="#62657B"/>
<path d="M61.8434 15.6073L62.6067 15.2066L63.7463 17.3769C63.5904 17.7495 63.3615 18.0927 63.0598 18.4067C62.7581 18.7206 62.4085 18.9819 62.0109 19.1906C61.4491 19.4857 60.8789 19.6295 60.3003 19.6223C59.719 19.6098 59.1857 19.4571 58.7006 19.1641C58.218 18.8631 57.8347 18.4424 57.5508 17.9018C57.267 17.3612 57.1382 16.8068 57.1644 16.2386C57.1959 15.6677 57.3729 15.142 57.6955 14.6617C58.0233 14.1786 58.4708 13.7881 59.0379 13.4903C59.4832 13.2565 59.925 13.1192 60.3633 13.0784C60.8042 13.0294 61.2256 13.0786 61.6275 13.2259L61.3934 13.9776C60.7227 13.7821 60.072 13.8499 59.4412 14.1811C59.0172 14.4038 58.6843 14.6969 58.4424 15.0605C58.2031 15.416 58.0743 15.8082 58.0561 16.237C58.035 16.6604 58.1316 17.0762 58.3459 17.4843C58.5574 17.8871 58.8449 18.2027 59.2082 18.4311C59.5688 18.6542 59.9647 18.7708 60.3961 18.781C60.8327 18.7884 61.2604 18.6821 61.6791 18.4623C62.1774 18.2006 62.5494 17.8532 62.7952 17.4199L61.8434 15.6073Z" fill="#62657B"/>
<path d="M52.7431 24.8351C52.0442 25.2975 51.3678 25.4579 50.7141 25.3162C50.0604 25.1745 49.4858 24.7292 48.9903 23.9803L47.0183 21L47.7672 20.5045L49.7194 23.4549C50.4627 24.5781 51.3261 24.8144 52.3096 24.1636C52.7889 23.8465 53.0651 23.4664 53.138 23.0234C53.2077 22.5754 53.0542 22.0668 52.6776 21.4977L50.7254 18.5473L51.4518 18.0666L53.4239 21.047C53.9227 21.8008 54.1095 22.5062 53.9843 23.1633C53.8558 23.8153 53.4421 24.3726 52.7431 24.8351Z" fill="#62657B"/>
<path d="M45.2749 28.3212L42.6748 30.4183L43.1231 32.0755L42.4032 32.6561L40.6727 25.9767L41.3647 25.4186L47.5336 28.5182L46.7997 29.1102L45.2749 28.3212ZM44.5793 27.9593L41.5902 26.4133L42.4684 29.6618L44.5793 27.9593Z" fill="#62657B"/>
<path d="M25.6272 47.7799L27.3604 49.0908L26.8241 49.7998L25.0766 48.478L20.3048 47.9986L20.8845 47.2323L24.7406 47.6271L23.3168 44.0169L23.8531 43.308L25.6272 47.7799Z" fill="#62657B"/>
<path d="M18.3623 52.444L17.189 54.2516L16.5337 53.8263L19.3643 49.4655L20.0196 49.8908L18.8463 51.6984L23.4637 54.6953L22.9797 55.4409L18.3623 52.444Z" fill="#62657B"/>
<path d="M14.6116 57.164L15.0613 56.3869L20.5023 59.5348L20.0526 60.312L14.6116 57.164Z" fill="#62657B"/>
<path d="M12.4144 61.2452L12.8316 60.4501L17.706 63.0082L19.2875 59.9949L19.9792 60.358L17.9805 64.1663L12.4144 61.2452Z" fill="#62657B"/>
<path d="M14.2795 68.2512L12.922 71.3031L14.0769 72.5735L13.7011 73.4185L9.11427 68.2632L9.47554 67.451L16.3796 67.3968L15.9964 68.2582L14.2795 68.2512ZM13.4954 68.2464L10.13 68.2335L12.3933 70.724L13.4954 68.2464Z" fill="#62657B"/>
<path d="M11.6138 77.0258L12.3532 77.2783L10.8789 81.5948L4.93009 79.5632L6.36373 75.3657L7.10309 75.6182L5.95966 78.966L7.78679 79.59L8.80543 76.6075L9.52779 76.8542L8.50915 79.8367L10.4298 80.4926L11.6138 77.0258Z" fill="#62657B"/>
<path d="M10.2664 83.8332L8.0572 84.6613C8.02673 84.8265 7.99949 84.9555 7.97546 85.0482L7.58572 86.5518L9.43735 87.0317L9.21207 87.9009L3.1269 86.3238L3.74192 83.951C3.94617 83.1629 4.29522 82.5918 4.78907 82.2374C5.28292 81.8831 5.86018 81.7915 6.52085 81.9628C6.99028 82.0844 7.36013 82.3039 7.63039 82.6213C7.90065 82.9387 8.05556 83.3313 8.0951 83.7992L10.5119 82.8858L10.2664 83.8332ZM7.22979 84.8828C7.37246 84.3323 7.36254 83.8814 7.20003 83.5301C7.03751 83.1788 6.73602 82.9461 6.29557 82.8319C5.85512 82.7178 5.48144 82.7755 5.17453 83.0052C4.86183 83.2333 4.63414 83.6226 4.49146 84.1731L4.10848 85.6506L6.84681 86.3603L7.22979 84.8828Z" fill="#62657B"/>
<path d="M0.505302 101.653L0.856907 99.0276C0.945107 98.369 1.15392 97.8021 1.48334 97.3269C1.81277 96.8517 2.23351 96.5064 2.74557 96.2912C3.25248 96.0692 3.81154 95.9992 4.42273 96.0811C5.03392 96.163 5.5578 96.3782 5.99437 96.7266C6.4258 97.0682 6.73789 97.5117 6.93065 98.0569C7.12341 98.6021 7.17569 99.204 7.08749 99.8625L6.73588 102.488L0.505302 101.653ZM6.30596 99.8121C6.3735 99.3078 6.33479 98.8527 6.18983 98.4468C6.04566 98.0349 5.81243 97.7017 5.49014 97.4471C5.16192 97.1918 4.76638 97.0331 4.30354 96.971C3.8407 96.909 3.42032 96.9584 3.04241 97.1191C2.65857 97.279 2.34291 97.5387 2.09545 97.8981C1.84877 98.2516 1.69167 98.6804 1.62413 99.1847L1.39886 100.867L6.0807 101.494L6.30596 99.8121Z" fill="#62657B"/>
<path d="M5.67234 107.526L6.45309 107.556L6.28186 112.114L0 111.878L0.166509 107.445L0.947255 107.475L0.814452 111.01L2.74388 111.082L2.86219 107.933L3.62499 107.962L3.50668 111.111L5.53482 111.187L5.67234 107.526Z" fill="#62657B"/>
<path d="M0.951905 117.657L1.03427 119.81L0.253548 119.84L0.0548356 114.645L0.835561 114.615L0.917929 116.769L6.4189 116.558L6.45288 117.446L0.951905 117.657Z" fill="#62657B"/>
<path d="M0.698232 124.586L6.93995 123.839L7.02748 124.57L2.82127 128.872L7.47581 128.315L7.58255 129.206L1.34083 129.953L1.2533 129.222L5.45952 124.921L0.804976 125.478L0.698232 124.586Z" fill="#62657B"/>
<path d="M7.81001 134.35L8.57337 134.184L9.54516 138.64L3.40323 139.98L2.45822 135.646L3.22157 135.479L3.97529 138.936L5.86174 138.525L5.19028 135.445L5.93609 135.283L6.60754 138.362L8.59051 137.93L7.81001 134.35Z" fill="#62657B"/>
<path d="M12.7044 148.727L8.38667 150.254L12.7407 151.132L12.8777 151.521L10.056 154.921L14.3513 153.411L14.6372 154.225L8.70679 156.309L8.46259 155.615L11.7612 151.676L6.7353 150.702L6.4911 150.007L12.4185 147.914L12.7044 148.727Z" fill="#62657B"/>
<path d="M14.7992 161.598L14.411 160.828L16.5998 159.724C16.9699 159.886 17.3094 160.12 17.6184 160.427C17.9273 160.734 18.1829 161.088 18.3851 161.488C18.6709 162.055 18.8055 162.627 18.7888 163.206C18.7667 163.787 18.6053 164.317 18.3044 164.798C17.9956 165.275 17.5685 165.652 17.0233 165.927C16.4781 166.202 15.9216 166.321 15.3539 166.286C14.7835 166.245 14.2608 166.06 13.7857 165.729C13.308 165.394 12.9248 164.94 12.6363 164.368C12.4099 163.919 12.2798 163.475 12.2461 163.036C12.2044 162.595 12.2605 162.174 12.4144 161.775L13.1622 162.021C12.9557 162.689 13.0129 163.34 13.3338 163.976C13.5494 164.404 13.8371 164.741 14.1967 164.989C14.5483 165.234 14.9384 165.369 15.3668 165.394C15.7899 165.422 16.2073 165.333 16.6189 165.125C17.0251 164.92 17.3454 164.638 17.5797 164.278C17.8087 163.921 17.9318 163.527 17.9491 163.096C17.9636 162.66 17.8643 162.231 17.6513 161.808C17.3979 161.306 17.0565 160.928 16.6273 160.676L14.7992 161.598Z" fill="#62657B"/>
<path d="M23.8783 170.847C24.3293 171.553 24.4786 172.232 24.3262 172.883C24.1738 173.534 23.7191 174.102 22.9622 174.585L19.9498 176.508L19.4666 175.751L22.4487 173.847C23.5841 173.122 23.8344 172.263 23.1998 171.269C22.8905 170.785 22.515 170.503 22.0732 170.422C21.6263 170.345 21.1153 170.491 20.54 170.858L17.5579 172.762L17.0892 172.028L20.1016 170.104C20.8635 169.618 21.572 169.443 22.2269 169.579C22.8768 169.718 23.4273 170.14 23.8783 170.847Z" fill="#62657B"/>
<path d="M27.2421 178.371L29.2966 181.005L30.9609 180.583L31.5298 181.313L24.8226 182.934L24.2759 182.233L27.4761 176.116L28.056 176.859L27.2421 178.371ZM26.8689 179.06L25.2742 182.024L28.5368 181.199L26.8689 179.06Z" fill="#62657B"/>
<path d="M46.3777 198.332L47.7168 196.62L48.417 197.168L47.0668 198.894L46.5098 203.657L45.7531 203.065L46.2106 199.216L42.5775 200.58L41.8774 200.033L46.3777 198.332Z" fill="#62657B"/>
<path d="M50.9232 205.672L52.7116 206.874L52.2757 207.523L47.9611 204.621L48.3971 203.973L50.1855 205.176L53.2572 200.608L53.9949 201.104L50.9232 205.672Z" fill="#62657B"/>
<path d="M55.5816 209.499L54.8117 209.036L58.0479 203.648L58.8177 204.11L55.5816 209.499Z" fill="#62657B"/>
<path d="M59.6267 211.762L58.8385 211.332L61.4756 206.501L58.4881 204.87L58.8624 204.185L62.6381 206.245L59.6267 211.762Z" fill="#62657B"/>
<path d="M66.6617 210.012L69.6915 211.419L70.9806 210.286L71.8194 210.675L66.5899 215.176L65.7835 214.802L65.8413 207.899L66.6965 208.296L66.6617 210.012ZM66.6442 210.796L66.5766 214.16L69.1038 211.938L66.6442 210.796Z" fill="#62657B"/>
<path d="M75.3921 212.82L75.6566 212.085L79.9491 213.63L77.8209 219.544L73.6467 218.042L73.9112 217.307L77.2404 218.505L77.8941 216.688L74.9282 215.621L75.1866 214.903L78.1525 215.97L78.8396 214.061L75.3921 212.82Z" fill="#62657B"/>
<path d="M82.1771 214.279L82.9693 216.501C83.1341 216.534 83.2626 216.563 83.3549 216.589L84.8523 217.003L85.3622 215.16L86.2278 215.399L84.5518 221.457L82.1889 220.803C81.4042 220.586 80.8387 220.228 80.4924 219.728C80.146 219.229 80.0639 218.65 80.2458 217.993C80.3751 217.525 80.6006 217.159 80.9224 216.894C81.2442 216.629 81.6393 216.481 82.1078 216.449L81.2337 214.018L82.1771 214.279ZM83.1774 217.332C82.6292 217.18 82.1782 217.183 81.8242 217.339C81.4703 217.496 81.2326 217.794 81.1113 218.232C80.99 218.671 81.0417 219.045 81.2664 219.356C81.4894 219.672 81.875 219.906 82.4232 220.058L83.8946 220.465L84.6488 217.739L83.1774 217.332Z" fill="#62657B"/>
<path d="M99.8367 224.328L97.217 223.933C96.5599 223.834 95.9963 223.616 95.5264 223.279C95.0565 222.942 94.7181 222.516 94.5112 222C94.2974 221.49 94.2365 220.93 94.3283 220.32C94.4201 219.711 94.6438 219.19 94.9993 218.76C95.3479 218.334 95.7964 218.029 96.3448 217.845C96.8932 217.662 97.4959 217.619 98.1531 217.718L100.773 218.113L99.8367 224.328ZM98.09 218.499C97.5868 218.423 97.131 218.454 96.7227 218.592C96.3085 218.73 95.9715 218.957 95.7117 219.276C95.451 219.599 95.2859 219.992 95.2163 220.454C95.1468 220.916 95.1893 221.337 95.3439 221.717C95.4977 222.103 95.7522 222.423 96.1076 222.677C96.4571 222.929 96.8834 223.093 97.3866 223.169L99.065 223.422L99.7684 218.751L98.09 218.499Z" fill="#62657B"/>
<path d="M105.793 219.258L105.835 218.478L110.39 218.724L110.052 225L105.622 224.761L105.664 223.981L109.197 224.172L109.301 222.244L106.154 222.074L106.195 221.312L109.342 221.482L109.452 219.456L105.793 219.258Z" fill="#62657B"/>
<path d="M115.847 224.142L118.001 224.095L118.018 224.876L112.82 224.99L112.803 224.209L114.958 224.162L114.837 218.659L115.726 218.64L115.847 224.142Z" fill="#62657B"/>
<path d="M122.771 224.509L122.125 218.257L122.858 218.182L127.091 222.457L126.61 217.794L127.503 217.702L128.148 223.954L127.416 224.03L123.183 219.755L123.664 224.417L122.771 224.509Z" fill="#62657B"/>
<path d="M132.65 217.559L132.496 216.793L136.969 215.894L138.207 222.056L133.858 222.93L133.704 222.164L137.173 221.467L136.792 219.574L133.702 220.196L133.552 219.447L136.642 218.826L136.242 216.837L132.65 217.559Z" fill="#62657B"/>
<path d="M147.105 212.9L148.562 217.241L149.51 212.902L149.902 212.772L153.256 215.648L151.816 211.329L152.634 211.057L154.622 217.019L153.923 217.252L150.039 213.891L148.982 218.899L148.284 219.132L146.287 213.172L147.105 212.9Z" fill="#62657B"/>
<path d="M160.009 211.014L159.233 211.39L158.165 209.184C158.333 208.816 158.573 208.481 158.885 208.177C159.196 207.873 159.554 207.623 159.958 207.427C160.53 207.151 161.104 207.026 161.682 207.052C162.263 207.083 162.791 207.253 163.266 207.562C163.739 207.878 164.108 208.311 164.374 208.861C164.64 209.411 164.751 209.969 164.706 210.536C164.656 211.105 164.462 211.625 164.124 212.095C163.781 212.567 163.321 212.942 162.744 213.222C162.291 213.441 161.845 213.564 161.406 213.59C160.964 213.625 160.544 213.562 160.147 213.401L160.406 212.658C161.07 212.875 161.722 212.828 162.363 212.518C162.794 212.309 163.137 212.027 163.39 211.672C163.641 211.324 163.783 210.936 163.815 210.508C163.85 210.086 163.767 209.667 163.566 209.252C163.368 208.843 163.091 208.518 162.735 208.278C162.382 208.043 161.99 207.914 161.559 207.889C161.123 207.868 160.692 207.96 160.266 208.166C159.76 208.411 159.377 208.747 159.117 209.172L160.009 211.014Z" fill="#62657B"/>
<path d="M169.406 202.088C170.12 201.648 170.801 201.51 171.45 201.673C172.098 201.836 172.658 202.3 173.129 203.064L175.003 206.107L174.238 206.578L172.383 203.566C171.677 202.419 170.822 202.155 169.817 202.773C169.328 203.074 169.04 203.445 168.952 203.885C168.868 204.331 169.005 204.844 169.363 205.425L171.218 208.438L170.476 208.895L168.602 205.852C168.128 205.082 167.964 204.371 168.111 203.718C168.261 203.071 168.692 202.527 169.406 202.088Z" fill="#62657B"/>
<path d="M176.984 198.847L179.651 196.836L179.257 195.165L179.995 194.608L181.507 201.34L180.797 201.875L174.732 198.576L175.485 198.009L176.984 198.847ZM177.667 199.231L180.604 200.874L179.832 197.598L177.667 199.231Z" fill="#62657B"/>
<g filter="url(#filter0_d_308_3440)">
<path fill-rule="evenodd" clip-rule="evenodd" d="M103.119 65.1944C92.0189 65.981 82.5636 69.0885 78.1135 73.4125L77 74.4945V86.3536V98.2128L79.3507 97.0942C85.0655 94.375 92.6148 92.5149 101.436 91.6525C105.676 91.238 116.227 91.1856 120.776 91.5564C126.209 91.9991 132.387 92.9836 136.134 94.0032C139.828 95.0085 144.517 96.7655 146.301 97.8127L147 98.2234V86.3644V74.5055L145.925 73.3749C141.787 69.0197 132.095 66.0185 119.453 65.1777C115.783 64.9336 106.668 64.9427 103.119 65.1944ZM102.495 68.6056C102.724 68.8126 103.011 69.3647 103.133 69.8326C103.254 70.3005 103.401 70.847 103.459 71.0472C103.558 71.3866 104.178 71.4112 112.657 71.4112H121.749L122.359 72.019C122.763 72.421 122.97 72.8384 122.97 73.2514C122.97 73.7719 121.121 78.0295 119.371 81.5409C118.634 83.0178 118.433 83.0569 111.551 83.0558C105.934 83.0552 105.477 83.0273 104.851 82.648C104.102 82.1932 103.933 81.7324 103.022 77.6498C102.728 76.3345 102.221 74.1354 101.896 72.7629L101.305 70.2674L99.9658 70.1634C98.3431 70.0374 98.1045 69.9016 98.1045 69.1047C98.1045 68.2777 98.653 68.0662 100.561 68.1571C101.654 68.2093 102.194 68.3345 102.495 68.6056ZM104.09 73.8469C104.168 74.1574 104.573 75.9119 104.991 77.7461L105.749 81.0811L111.611 81.1362L117.473 81.1915L119.203 77.497C120.154 75.465 120.978 73.6858 121.033 73.5427C121.113 73.3372 119.33 73.2828 112.541 73.2828H103.947L104.09 73.8469ZM108.327 84.8428C109.204 85.5767 109.216 86.5871 108.359 87.4397C107.602 88.1936 106.903 88.2148 106.061 87.5092C104.763 86.4228 105.527 84.3343 107.23 84.3106C107.48 84.3073 107.974 84.5466 108.327 84.8428ZM116.915 84.619C117.639 84.9915 117.985 85.9921 117.689 86.8581C117.48 87.4728 116.596 88.0476 115.86 88.0476C115.171 88.0476 114.194 86.9504 114.194 86.176C114.194 85.7285 114.388 85.3271 114.805 84.9122C115.49 84.2308 116.018 84.1571 116.915 84.619ZM105.627 93.2641C102.42 93.4371 99.6708 93.7027 97.0075 94.097L95.3881 94.3368V101.174C95.3881 107.548 95.4129 108.011 95.7537 108.009C95.9547 108.008 97.2948 107.87 98.7313 107.702C100.972 107.439 108.278 106.983 110.381 106.974L111.06 106.971V100.005V93.0385L109.858 93.0697C109.197 93.0867 107.293 93.1743 105.627 93.2641ZM112.94 100.015V106.934L114.664 107.05C115.612 107.114 117.657 107.219 119.209 107.284C121.801 107.393 126.933 107.854 128.56 108.125L129.239 108.238V101.383V94.5272L128.664 94.412C126.218 93.9215 120.434 93.4005 114.978 93.1791L112.94 93.0965V100.015ZM92.5672 94.8465C89.8798 95.4641 87.468 96.085 86.1418 96.5005L84.5224 97.0077V103.677V110.347L84.9925 110.214C86.1349 109.891 90.814 108.844 92.097 108.625L93.5075 108.385V101.543C93.5075 96.1961 93.4504 94.7073 93.2463 94.7263C93.1027 94.7396 92.797 94.7936 92.5672 94.8465ZM131.169 101.707L131.224 108.504L133.522 108.955C134.787 109.204 136.615 109.608 137.584 109.853C138.555 110.098 139.424 110.299 139.517 110.299C139.611 110.299 139.687 107.319 139.687 103.677V97.0551L137.858 96.5047C135.908 95.9174 131.817 94.9107 131.378 94.9103C131.169 94.9101 131.125 96.3398 131.169 101.707ZM62.791 124.729V153.969H68.9552H75.1194V126.776V99.5835L69.2164 97.6328C65.9699 96.56 63.196 95.6388 63.0522 95.5857C62.8441 95.509 62.791 101.425 62.791 124.729ZM154.888 97.5736L148.881 99.5814V126.775V153.969H155.045H161.209V124.752C161.209 108.682 161.139 95.541 161.052 95.5498C160.966 95.5585 158.192 96.4693 154.888 97.5736ZM79.5597 99.0871L77 100.342V106.751V113.161L79.7085 112.094L82.417 111.027L82.4249 104.424C82.4293 100.793 82.3622 97.8239 82.2761 97.8271C82.19 97.83 80.9676 98.3971 79.5597 99.0871ZM141.567 104.443V111.065L142.455 111.33C142.944 111.475 144.166 111.947 145.172 112.379L147 113.163V106.744V100.325L144.449 99.0731C143.046 98.3848 141.824 97.8215 141.733 97.8215C141.642 97.8215 141.567 100.801 141.567 104.443ZM57.9847 130.626L57.9851 153.969H59.4478H60.9104V130.695V107.421L59.4473 107.352L57.984 107.283L57.9847 130.626ZM163.299 107.353C163.161 107.398 163.09 115.365 163.09 130.696V153.969H164.552H166.015V130.626V107.283H164.761C164.072 107.283 163.413 107.315 163.299 107.353ZM52.9701 130.678V153.969H54.5338H56.0974L56.1026 130.678L56.1078 107.387H54.539H52.9701V130.678ZM167.897 130.678L167.903 153.969H169.466H171.03V130.678V107.387H169.461H167.892L167.897 130.678ZM105.94 109.062C102.592 109.198 96.3434 109.762 95.6493 109.992C95.4478 110.058 95.3881 111.537 95.3881 116.451V122.824L96.4851 122.693C98.8776 122.407 102.8 122.151 106.828 122.018L111.06 121.878V115.361V108.843L110.381 108.876C110.007 108.894 108.009 108.977 105.94 109.062ZM112.94 115.434V121.88L116.858 122.023C120.831 122.169 127.907 122.696 128.768 122.911L129.239 123.029V116.56C129.239 113.002 129.207 110.091 129.167 110.091C129.128 110.091 127.412 109.9 125.354 109.668C123.296 109.435 119.661 109.187 117.276 109.116L112.94 108.987V115.434ZM92.6716 110.445C91.3159 110.676 87.1958 111.618 85.9328 111.986L84.5224 112.396V118.59V124.784L86.6642 124.302C87.8421 124.038 89.8639 123.658 91.1567 123.458L93.5075 123.095V116.697C93.5075 113.178 93.437 110.311 93.3507 110.327C93.2644 110.343 92.959 110.395 92.6716 110.445ZM131.119 116.822V123.173L131.903 123.296C133.487 123.545 138.977 124.629 139.327 124.763C139.662 124.891 139.687 124.48 139.687 118.654V112.408L138.59 112.094C137.248 111.709 133.222 110.802 132.007 110.61L131.119 110.47V116.822ZM80.4478 113.806C79.4134 114.242 78.2147 114.771 77.7836 114.982L77 115.367V121.331V127.296L78.745 126.606C79.7047 126.227 80.9271 125.807 81.4614 125.673L82.4328 125.43V119.216C82.4328 115.799 82.4092 113.005 82.3806 113.009C82.352 113.012 81.4821 113.371 80.4478 113.806ZM141.616 119.161L141.672 125.319L144.284 126.228C145.72 126.727 146.919 127.138 146.948 127.14C146.977 127.142 147 124.47 147 121.203V115.264L145.59 114.625C144.814 114.274 143.59 113.766 142.87 113.495L141.561 113.003L141.616 119.161ZM104.582 123.958C101.947 124.108 95.733 124.668 95.5673 124.77C95.4687 124.831 95.3881 127.836 95.3881 131.449V138.017L97.5299 137.882C98.7077 137.807 102.234 137.686 105.366 137.612L111.06 137.477V130.647V123.816L108.396 123.854C106.93 123.876 105.214 123.922 104.582 123.958ZM112.94 130.678V137.541L116.022 137.542C119.163 137.543 126.157 137.849 128.142 138.072L129.239 138.195V131.548V124.902L128.56 124.784C126.659 124.456 117.406 123.822 114.455 123.818L112.94 123.816V130.678ZM89.96 125.59C88.526 125.86 86.7158 126.237 85.9376 126.427L84.5224 126.772V133.116V139.461L85.097 139.337C85.413 139.269 87.2231 139.02 89.1194 138.783C91.0157 138.547 92.7786 138.309 93.0373 138.255L93.5075 138.157V131.61V125.064L93.0373 125.081C92.7786 125.09 91.3939 125.319 89.96 125.59ZM131.119 131.782V138.293L134.828 138.758C136.868 139.013 138.796 139.276 139.112 139.342L139.687 139.461V133.12V126.779L139.112 126.651C136.072 125.977 132.348 125.275 131.799 125.273L131.119 125.272V131.782ZM80.3433 128.06C79.2515 128.447 78.0525 128.876 77.6791 129.014L77 129.263V135.192C77 139.849 77.056 141.099 77.2612 141.022C77.405 140.967 78.6271 140.667 79.9776 140.355L82.4328 139.788V133.569C82.4328 130.149 82.4092 127.352 82.3806 127.353C82.352 127.354 81.4351 127.672 80.3433 128.06ZM141.567 133.555V139.759L144.022 140.333C145.373 140.649 146.595 140.954 146.739 141.009C146.944 141.089 147 139.84 147 135.182V129.253L145.799 128.798C144.514 128.313 141.747 127.351 141.635 127.351C141.598 127.351 141.567 130.143 141.567 133.555ZM102.963 139.55C102.761 139.631 102.701 141.281 102.701 146.812V153.969H106.881H111.06V146.691V139.412L107.142 139.429C104.987 139.438 103.106 139.493 102.963 139.55ZM112.94 146.691V153.969H117.328H121.716V146.824V139.68L120.432 139.546C119.726 139.473 117.751 139.412 116.044 139.412H112.94V146.691ZM97.6866 139.761C96.9396 139.799 96.1169 139.879 95.8582 139.938L95.3881 140.044V147.007V153.969H98.0967H100.805L100.761 146.847L100.716 139.724L99.8806 139.708C99.4209 139.699 98.4336 139.723 97.6866 139.761ZM123.597 146.784V153.969H126.418H129.239V147.02V140.072L127.619 139.946C126.729 139.877 125.459 139.77 124.799 139.71L123.597 139.6V146.784ZM90.4776 140.468C89.7881 140.562 88.1662 140.795 86.8731 140.985L84.5224 141.329V147.649V153.969H89.0149H93.5075V147.107V140.244L92.6194 140.27C92.1311 140.284 91.1672 140.373 90.4776 140.468ZM131.119 147.107V153.969H135.403H139.687V147.655V141.341L138.694 141.197C137.257 140.989 131.461 140.244 131.276 140.244C131.19 140.244 131.119 143.332 131.119 147.107ZM79.9254 142.298C78.7187 142.608 77.5669 142.925 77.3657 143.002C77.0303 143.131 77 143.593 77 148.556V153.969H79.7164H82.4328V147.835C82.4328 144.461 82.3622 141.708 82.2761 141.718C82.19 141.728 81.1321 141.989 79.9254 142.298ZM141.567 147.821V153.969H144.284H147V148.49V143.012L144.649 142.445C143.356 142.134 142.134 141.832 141.933 141.775C141.591 141.679 141.567 142.064 141.567 147.821ZM49 158.024V160H112H175V158.024V156.049H112H49V158.024Z" fill="url(#paint0_linear_308_3440)"/>
</g>
<defs>
<filter id="filter0_d_308_3440" x="45" y="59" width="152" height="121" filterUnits="userSpaceOnUse" color-interpolation-filters="sRGB">
<feFlood flood-opacity="0" result="BackgroundImageFix"/>
<feColorMatrix in="SourceAlpha" type="matrix" values="0 0 0 0 0 0 0 0 0 0 0 0 0 0 0 0 0 0 127 0" result="hardAlpha"/>
<feOffset dx="9" dy="7"/>
<feGaussianBlur stdDeviation="6.5"/>
<feComposite in2="hardAlpha" operator="out"/>
<feColorMatrix type="matrix" values="0 0 0 0 0 0 0 0 0 0 0 0 0 0 0 0 0 0 0.18 0"/>
<feBlend mode="normal" in2="BackgroundImageFix" result="effect1_dropShadow_308_3440"/>
<feBlend mode="normal" in="SourceGraphic" in2="effect1_dropShadow_308_3440" result="shape"/>
</filter>
<linearGradient id="paint0_linear_308_3440" x1="112" y1="65" x2="112" y2="160" gradientUnits="userSpaceOnUse">
<stop stop-color="#6CCAFF"/>
<stop offset="1" stop-color="#467DE2"/>
</linearGradient>
</defs>
</svg>
