<svg width="446" height="185" viewBox="0 0 446 185" fill="none" xmlns="http://www.w3.org/2000/svg">
<path opacity="0.07" d="M-171.589 -167.105C-180.536 -128.515 -153.344 -90.9394 -115.474 -71.2356C-72.6715 -48.9726 -89.6519 -32.8444 -70.1903 -9.90667C-49.4993 14.4802 -26.5883 21.8325 -12.3053 49.3241C14.2608 100.458 78.9678 82.7633 127 82.1734C172.096 81.635 201.314 103.585 246.473 135.263C246.768 135.466 340.91 238.9 385.376 137.455C393.628 118.657 395.683 103.184 399.238 92.8858C413.186 52.2965 456.927 54.0392 523.361 30.6286C607.436 0.989617 635.167 -81.7266 545.485 -110.216C511.014 -121.177 481.126 -122.933 448.105 -137.005C380.615 -165.767 387.97 -223.613 329.411 -249.052C308.441 -260.331 276.841 -263.133 255.282 -260.388C172.312 -249.832 139.841 -222.29 80.046 -238.017C59.7099 -243.372 34.4289 -253.477 4.11608 -257.705C-73.932 -268.669 -157.506 -227.818 -171.589 -167.105Z" fill="#3D77FF"/>
<path opacity="0.1" d="M128.998 136C140.044 136 148.998 127.046 148.998 116C148.998 104.954 140.044 96 128.998 96C117.952 96 108.998 104.954 108.998 116C108.998 127.046 117.952 136 128.998 136Z" fill="url(#paint0_linear_308_3535)"/>
<path opacity="0.1" d="M80.498 140C85.1925 140 88.998 136.194 88.998 131.5C88.998 126.806 85.1925 123 80.498 123C75.8036 123 71.998 126.806 71.998 131.5C71.998 136.194 75.8036 140 80.498 140Z" fill="url(#paint1_linear_308_3535)"/>
<defs>
<linearGradient id="paint0_linear_308_3535" x1="128.999" y1="131.476" x2="128.999" y2="98.1012" gradientUnits="userSpaceOnUse">
<stop stop-color="#2765FF"/>
<stop offset="1" stop-color="#6C9CFF"/>
</linearGradient>
<linearGradient id="paint1_linear_308_3535" x1="80.4985" y1="138.077" x2="80.4985" y2="123.893" gradientUnits="userSpaceOnUse">
<stop stop-color="#2765FF"/>
<stop offset="1" stop-color="#6C9CFF"/>
</linearGradient>
</defs>
</svg>
