<svg width="1920" height="374" viewBox="0 0 1920 374" fill="none" xmlns="http://www.w3.org/2000/svg">
<mask id="mask0_1_5" style="mask-type:alpha" maskUnits="userSpaceOnUse" x="0" y="12" width="1920" height="362">
<rect y="12" width="1920" height="362" fill="#D9D9D9"/>
</mask>
<g mask="url(#mask0_1_5)">
</g>
<g clip-path="url(#clip0_1_5)">
<path opacity="0.07" d="M-480.974 -230.497C-502.783 -162.759 -433.309 -97.3156 -337.23 -63.3362C-228.635 -24.9438 -271.201 3.55624 -221.56 43.4649C-168.784 85.8949 -110.75 98.4483 -74.0988 146.409C-5.92769 235.616 157.181 203.689 278.516 201.968C392.432 200.379 466.703 238.419 581.443 293.271C582.193 293.624 822.166 473.494 932.41 295.125C952.869 262.072 957.741 234.932 966.509 216.84C1000.91 145.527 1111.45 147.954 1278.8 105.987C1490.6 52.8558 1558.95 -92.4613 1331.79 -141.092C1244.48 -159.802 1168.94 -162.45 1085.22 -186.633C914.123 -236.057 931.51 -337.51 783.045 -381.242C729.834 -400.703 649.943 -405.16 595.533 -400.041C386.137 -380.36 304.672 -331.641 153.284 -358.339C101.797 -367.43 37.7189 -384.772 -38.9496 -391.745C-236.354 -409.838 -446.649 -337.069 -480.974 -230.497Z" fill="#3D77FF"/>
</g>
<defs>
<clipPath id="clip0_1_5">
<rect width="1473" height="374" fill="white"/>
</clipPath>
</defs>
</svg>
