<svg width="116" height="116" viewBox="0 0 116 116" fill="none" xmlns="http://www.w3.org/2000/svg">
<path fill-rule="evenodd" clip-rule="evenodd" d="M53.6779 0.0767668C53.4997 0.114699 52.2252 0.261042 50.8457 0.401781C49.4662 0.542519 48.2437 0.720329 48.129 0.797056C48.0143 0.873568 47.7924 1.80917 47.6362 2.87602C47.2814 5.29681 46.4827 8.3103 45.8868 9.47544C44.9744 11.2593 42.3307 13.2739 39.4494 14.3808C37.508 15.1268 34.6374 15.5938 33.2599 15.3878C31.9473 15.1914 29.3238 13.8526 26.9061 12.1456C25.8133 11.374 24.7292 10.7427 24.4967 10.7427C24.2644 10.7427 23.9077 10.9367 23.7042 11.1738C23.5007 11.4109 23.2101 11.6048 23.0582 11.6048C22.9063 11.6048 22.7821 11.7503 22.7821 11.9281C22.7821 12.1059 22.5995 12.2514 22.3763 12.2514C21.9256 12.2514 21.4097 12.7504 21.6316 12.9717C21.7098 13.0497 21.6361 13.1165 21.4678 13.1204C21.2995 13.1241 20.8261 13.4635 20.4158 13.8748C20.0058 14.2858 19.5665 14.6222 19.4401 14.6222C19.1608 14.6222 14.8524 18.9683 13.3509 20.7647C11.1994 23.3385 10.3753 24.5606 10.5884 24.8614C12.7102 27.8583 14.0809 29.9927 14.6372 31.1662C15.2526 32.4645 15.3232 32.8131 15.3031 34.4506C15.2753 36.7035 14.8127 38.5553 13.7149 40.8086C12.4771 43.3493 10.8431 45.2153 9.21858 45.9425C7.6161 46.66 5.20255 47.29 2.71922 47.6393C1.69253 47.7837 0.79136 47.99 0.716389 48.0977C0.641634 48.2055 0.448481 49.3737 0.287304 50.6935C-0.259963 55.1741 0.0263097 66.7429 0.710556 67.7908C0.788552 67.9102 2.05053 68.2178 3.51473 68.474C7.51326 69.1741 9.40698 69.8657 10.7995 71.1351C13.4844 73.5831 15.2729 77.7169 15.3109 81.5621C15.3273 83.2262 15.2819 83.3971 14.3065 85.3338C13.7447 86.4496 12.6517 88.2352 11.8778 89.3021C11.1041 90.3689 10.47 91.3039 10.4689 91.3797C10.4678 91.4556 11.3154 92.6177 12.3525 93.9622C15.0756 97.4931 19.1928 101.518 22.9718 104.344L24.566 105.536L26.1046 104.415C28.1981 102.889 29.545 102.061 31.2082 101.278C32.4127 100.712 32.8604 100.617 34.3544 100.617C38.54 100.617 43.7517 103.113 45.5597 105.984C46.3001 107.159 46.9839 109.431 47.5052 112.447L47.975 115.165L49.4761 115.425C53.9128 116.192 62.0853 116.192 66.522 115.425L68.0231 115.165L68.4928 112.447C69.3069 107.736 70.0785 105.948 72.032 104.243C74.5201 102.072 78.3769 100.617 81.6437 100.617C83.1377 100.617 83.5853 100.712 84.7898 101.278C86.453 102.061 87.7999 102.889 89.8935 104.415L91.432 105.536L93.0263 104.344C95.8644 102.222 99.2392 99.0956 101.586 96.4144C103.247 94.5178 105.532 91.6004 105.529 91.3812C105.528 91.3045 104.894 90.3689 104.12 89.3021C103.346 88.2352 102.253 86.4496 101.692 85.3338C100.716 83.3971 100.671 83.2262 100.687 81.5621C100.725 77.7169 102.514 73.5831 105.199 71.1351C106.591 69.8657 108.485 69.1741 112.483 68.474C113.948 68.2178 115.21 67.9102 115.288 67.7908C115.971 66.7436 116.261 55.1289 115.714 50.6935C115.551 49.3737 115.356 48.2055 115.282 48.0977C115.207 47.99 114.306 47.7837 113.279 47.6393C110.796 47.29 108.382 46.66 106.779 45.9425C105.155 45.2153 103.521 43.3493 102.283 40.8086C101.185 38.5553 100.723 36.7035 100.695 34.4506C100.675 32.8131 100.746 32.4645 101.361 31.1662C101.919 29.9892 103.243 27.9266 105.413 24.856C105.563 24.6444 105.251 24.0849 104.279 22.8182C103.542 21.8579 102.938 21.0031 102.937 20.9184C102.933 20.6007 95.8434 13.8028 94.118 12.4628C91.2363 10.2248 91.6075 10.2912 89.7477 11.6813C87.6243 13.2685 84.9661 14.764 83.4935 15.2002C82.4701 15.5035 82.0267 15.5175 80.2983 15.3022C76.0098 14.7679 71.4982 12.1874 70.1113 9.47544C69.5066 8.29284 68.6907 5.19746 68.3489 2.78766C68.1407 1.32014 67.9821 0.803306 67.7142 0.718389C66.4775 0.326993 54.973 -0.198891 53.6779 0.0767668ZM65.9088 20.5104C74.8535 22.5128 82.4072 27.1934 88.0585 34.2351C93.9093 41.5248 97.0425 51.6341 96.255 60.6804C95.671 67.3912 93.9564 72.644 90.492 78.3369C89.9702 79.1947 89.5431 79.9969 89.5431 80.1196C89.5431 80.2422 89.3486 80.4463 89.1109 80.5732C88.8733 80.7002 88.6788 80.9347 88.6788 81.0944C88.6788 81.2539 88.2899 81.7727 87.8146 82.2468C87.3393 82.721 86.9504 83.1598 86.9504 83.2218C86.9504 83.4242 83.686 86.608 83.4788 86.608C83.368 86.608 83.2775 86.7535 83.2775 86.9313C83.2775 87.1091 83.1286 87.2546 82.9467 87.2546C82.7645 87.2546 82.5597 87.4 82.4915 87.5779C82.423 87.7557 82.2324 87.9011 82.0678 87.9011C81.9034 87.9011 81.6473 88.0951 81.4989 88.3322C81.3505 88.5693 81.1065 88.7632 80.9568 88.7632C80.8073 88.7632 80.6848 88.8602 80.6848 88.9788C80.6848 89.0973 80.5398 89.1943 80.3624 89.1943C80.1853 89.1943 79.9189 89.3883 79.7705 89.6254C79.622 89.8624 79.3438 90.0564 79.1519 90.0564C78.9603 90.0564 78.5411 90.2989 78.2207 90.5952C77.9001 90.8916 77.5531 91.134 77.4494 91.134C77.3459 91.134 76.5489 91.5121 75.6782 91.9742C64.3724 97.9744 49.6468 97.6 38.6036 91.0317C34.2712 88.4548 29.6481 84.2542 26.8871 80.3855C17.476 67.1992 17.2284 49.9918 26.2565 36.5242C29.2006 32.132 33.5887 27.9797 38.2607 25.1645C41.9003 22.9715 46.267 21.2886 50.4371 20.4718C53.7758 19.8181 53.6161 19.8289 58.7552 19.9039C62.873 19.9638 63.8293 20.0448 65.9088 20.5104ZM53.3134 28.6183C50.8282 29.5108 48.7372 30.9505 45.3549 34.0982C43.2261 36.0794 43.1643 36.1179 41.7061 36.3712C38.8892 36.8606 36.6398 38.5234 35.4088 41.027C34.9127 42.0356 34.7574 42.6809 34.6971 43.9829L34.6197 45.6485L33.4587 46.2151C32.6253 46.6218 32.0532 46.7585 31.4312 46.6994C30.5767 46.6179 30.5283 46.6535 27.8315 49.3497L25.098 52.0826L25.5992 52.9115C26.3435 54.1422 28.0095 56.1921 29.1924 57.3328C30.3027 58.4034 33.2878 60.5293 33.6808 60.5293C33.81 60.5293 35.0784 59.3663 36.4994 57.9451L39.0832 55.3608L39.102 54.2178C39.1148 53.4359 39.288 52.7716 39.651 52.1145C40.1773 51.1612 40.192 51.1528 41.5823 51.0218C42.3528 50.9494 43.2362 50.8211 43.5454 50.7371C44.0648 50.5959 44.5014 51.0067 49.2709 56.1222C52.1107 59.168 54.4588 61.7218 54.4888 61.7972C54.519 61.8727 53.1404 63.3318 51.4254 65.0394L48.307 68.1445L46.7255 67.6768C44.7052 67.0796 42.2687 67.0544 41.0247 67.618C39.1908 68.449 37.6506 70.3148 36.8265 72.7037C36.2901 74.2596 36.2388 76.5129 36.7308 76.9203C37.0214 77.1608 37.4187 76.852 39.5935 74.6963C41.0441 73.2585 42.3638 72.1339 42.6939 72.0539C44.5928 71.5951 48.2766 75.0625 48.2766 77.3087C48.2766 78.2464 48.2146 78.3329 45.7634 80.8086C42.8791 83.7217 42.7849 84.0232 44.759 84.0191C47.8946 84.0126 51.1823 82.2634 52.4918 79.9049C53.0859 78.8346 53.1367 78.5773 53.1244 76.6938C53.1142 75.184 52.9935 74.3275 52.6636 73.4329L52.2163 72.2192L55.3236 69.1251L58.4307 66.0313L59.2679 66.8903C59.7283 67.3628 63.3386 71.241 67.2907 75.5084C71.243 79.7758 74.6536 83.4542 74.8701 83.6826C75.2528 84.0863 75.3014 84.0874 76.6232 83.7208C80.1916 82.7311 81.6897 81.281 82.8521 77.6919L83.3246 76.2328L82.8149 75.6836C82.5347 75.3814 80.701 73.6771 78.7403 71.8959C76.7796 70.1148 73.8143 67.3736 72.1506 65.8043C70.487 64.2348 68.2303 62.1393 67.1358 61.1474L65.1459 59.3439L68.501 55.986L71.8561 52.6281L73.5943 53.1303C75.7415 53.7506 77.2826 53.7674 78.8378 53.1868C81.5739 52.1656 83.6999 48.6637 83.707 45.1664C83.7111 43.1971 83.4088 43.2911 80.4886 46.1684C78.1507 48.4719 77.8783 48.6754 77.1324 48.6754C74.9071 48.6754 71.8587 45.742 71.7697 43.5148C71.7356 42.6602 71.8166 42.5495 74.2652 40.1004C75.657 38.7083 76.7958 37.4096 76.7958 37.2143C76.7958 36.2927 73.0369 36.6858 70.9342 37.8273C69.3156 38.7062 68.046 39.9146 67.4156 41.1766C66.7037 42.6018 66.654 44.7569 67.2866 46.7703C67.5227 47.5216 67.7172 48.2831 67.7187 48.4624C67.7202 48.6417 66.2214 50.2823 64.3882 52.1085L61.0547 55.4284L60.2292 54.7094C59.775 54.314 57.1348 51.899 54.362 49.3426L49.3203 44.695L49.3927 42.5363C49.4599 40.5267 49.5234 40.2606 50.3125 38.684C51.8497 35.6117 52.9133 34.731 57.5244 32.7126C58.5826 32.2492 60.3756 30.6423 60.3756 30.1571C60.3756 29.7808 59.43 29.2741 57.7177 28.7329C55.7184 28.1012 54.8189 28.0777 53.3134 28.6183Z" fill="url(#paint0_linear_308_3588)"/>
<defs>
<linearGradient id="paint0_linear_308_3588" x1="58" y1="0" x2="58" y2="116" gradientUnits="userSpaceOnUse">
<stop stop-color="#6CCAFF"/>
<stop offset="1" stop-color="#467DE2"/>
</linearGradient>
</defs>
</svg>
