<svg width="135" height="89" viewBox="0 0 135 89" fill="none" xmlns="http://www.w3.org/2000/svg">
<path fill-rule="evenodd" clip-rule="evenodd" d="M36.4221 1.1847C31.9981 3.24095 30.2909 6.39089 30.2741 12.5265C30.2663 15.4438 30.0682 16.6492 29.5242 17.0963C28.2939 18.1067 28.6122 21.4775 30.218 24.4451C31.0058 25.9011 32.2341 28.2918 32.9476 29.7576C33.661 31.2233 34.5888 32.7988 35.009 33.2586C35.7112 34.0266 35.62 34.187 33.8803 35.2407C32.8397 35.8712 29.1547 37.6773 25.6915 39.2542C21.0127 41.3846 18.9419 42.6177 17.6308 44.0542C15.4289 46.4659 13.7221 50.2274 12.9515 54.3671C12.4179 57.2333 12.446 57.6473 13.2324 58.5074C14.4395 59.8279 18.699 60.729 30.552 62.1713C31.9612 62.343 32.1666 62.1655 33.3718 59.7342C36.0147 54.4008 39.1892 51.9291 48.4309 48.0097C51.5128 46.7029 54.1418 45.3552 54.2739 45.0148C54.4059 44.675 53.4171 42.4778 52.0769 40.1329C50.7362 37.788 49.3818 35.1232 49.0665 34.2119C48.2895 31.964 48.3432 27.5809 49.168 25.9708C49.539 25.2467 49.9533 22.6794 50.0893 20.2658C50.3662 15.3473 51.1812 12.996 53.6378 10.0289L55.3125 8.00683L54.4301 6.0564C53.3698 3.71198 50.6077 1.34805 48.0392 0.586407C44.7287 -0.394661 39.2089 -0.110872 36.4221 1.1847ZM86.6782 0.547399C84.4793 1.18617 81.4959 3.84461 80.4952 6.0564L79.6128 8.00683L81.2875 10.0289C83.7131 12.9585 84.5527 15.3424 84.8069 20.022C84.9311 22.3015 85.3474 24.9941 85.7322 26.0049C86.5802 28.2328 86.6373 31.9596 85.8589 34.2119C85.5435 35.1232 84.1891 37.788 82.8484 40.1329C81.5083 42.4778 80.5194 44.675 80.6514 45.0148C80.7835 45.3552 83.4126 46.7029 86.4944 48.0097C95.7361 51.9291 98.9107 54.4008 101.554 59.7342C102.759 62.1655 102.964 62.343 104.373 62.1713C116.232 60.728 120.485 59.8279 121.694 58.506C122.464 57.6648 122.505 57.2089 122.038 54.7543C121.224 50.4731 119.624 46.7366 117.604 44.4019C116.154 42.7255 114.487 41.6879 109.601 39.4215C106.207 37.8465 102.528 36.095 101.424 35.5294L99.4181 34.5005L101.538 30.5524C102.705 28.381 104.215 25.5076 104.895 24.1666C106.3 21.3936 106.541 18.0325 105.401 17.0963C104.856 16.6487 104.661 15.4497 104.657 12.5265C104.647 4.02404 100.598 0.0129802 92.098 0.0846585C89.9301 0.103188 87.4912 0.311397 86.6782 0.547399ZM60.5372 8.98936C57.5568 10.363 54.7981 13.3905 53.9379 16.2323C53.5935 17.3704 53.2087 20.06 53.083 22.2094C52.9574 24.3583 52.6691 26.5559 52.443 27.0923C52.2168 27.6287 51.9049 28.4591 51.7497 28.9379C51.2536 30.467 52.4721 34.6068 54.1399 37.059C55.0287 38.3663 56.0136 40.169 56.3295 41.0657C56.6448 41.9624 57.4509 43.5159 58.1209 44.5184L59.3389 46.3411L54.5321 48.7011C51.8882 49.9992 47.9929 51.8028 45.8752 52.7098C43.7575 53.6162 41.1526 55.0976 40.0859 56.0011C36.7493 58.8273 33.2905 67.6018 33.7926 71.9683C34.0256 73.9978 36.1029 74.8725 43.5664 76.0837C58.255 78.4686 76.7088 78.4691 91.3589 76.0862C98.8239 74.8716 100.9 73.9973 101.133 71.9683C101.635 67.6018 98.176 58.8273 94.8394 56.0011C93.7727 55.0976 91.1678 53.6162 89.0501 52.7098C86.9325 51.8028 83.0371 49.9992 80.3933 48.7011L75.5864 46.3411L76.8044 44.5184C77.4745 43.5159 78.2805 41.9624 78.5959 41.0657C78.9117 40.169 79.8966 38.3663 80.7854 37.059C83.1495 33.5824 83.9245 28.9784 82.4626 27.0923C82.2547 26.8241 81.9433 24.7396 81.7704 22.46C81.3328 16.6858 80.6761 14.5276 78.6407 12.1744C75.9313 9.04153 72.8346 7.84153 67.4627 7.84153C63.8398 7.84153 62.5725 8.0512 60.5372 8.98936ZM20.828 34.8267C15.0869 37.3886 13.2358 38.4706 9.12223 41.6674C3.03533 46.3982 -0.0322628 51.991 0.00025584 58.2992C0.015037 61.1249 0.292924 62.2786 1.61535 65.0019C6.97896 76.0462 21.872 83.8489 45.3199 87.899C51.0457 88.8878 53.3047 89 67.4627 89C81.6206 89 83.8796 88.8878 89.6054 87.899C113.053 83.8489 127.946 76.0462 133.31 65.0019C137.219 56.9529 134.265 48.1984 125.297 41.2539C122.056 38.7442 112.774 33.8169 109.589 32.9153C108.912 32.7237 110.38 33.9081 112.852 35.5484C120.912 40.8955 125.3 46.8204 126.271 53.6669C127.174 60.04 125.676 63.5473 120.18 67.9295C112.588 73.9826 99.6926 78.2619 82.9617 80.2806C74.6926 81.2782 55.3805 81.0247 47.7544 79.8178C29.1552 76.8751 15.2983 70.7561 10.1855 63.2284C8.72215 61.0742 8.58518 60.5495 8.59602 57.147C8.6108 52.6347 9.18037 50.0187 10.9349 46.4089C12.5268 43.1331 17.0336 38.5121 21.2339 35.8483C25.9132 32.8802 26.092 32.7588 25.8289 32.731C25.6934 32.7164 23.4428 33.6594 20.828 34.8267Z" fill="url(#paint0_linear_308_3528)"/>
<defs>
<linearGradient id="paint0_linear_308_3528" x1="67.5" y1="0" x2="67.5" y2="89" gradientUnits="userSpaceOnUse">
<stop stop-color="#6CCAFF"/>
<stop offset="1" stop-color="#467DE2"/>
</linearGradient>
</defs>
</svg>
